<svg width="12" height="13" viewBox="0 0 12 13" fill="none"
    xmlns="http://www.w3.org/2000/svg">
    <path fill-rule="evenodd" clip-rule="evenodd" d="M8.92501 3.02604V10C8.92501 10.2347 8.73473 10.425 8.50001 10.425C8.26529 10.425 8.07501 10.2347 8.07501 10V3.02604L6.80053 4.30052C6.63456 4.46649 6.36546 4.46649 6.19949 4.30052C6.03352 4.13454 6.03352 3.86545 6.19949 3.69948L8.19949 1.69948C8.36546 1.5335 8.63456 1.5335 8.80053 1.69948L10.8005 3.69948C10.9665 3.86545 10.9665 4.13454 10.8005 4.30052C10.6346 4.46649 10.3655 4.46649 10.1995 4.30052L8.92501 3.02604ZM3.92501 3C3.92501 2.76528 3.73473 2.575 3.50001 2.575C3.26529 2.575 3.07501 2.76528 3.07501 3V9.97396L1.80053 8.69948C1.63456 8.5335 1.36546 8.5335 1.19949 8.69948C1.03352 8.86545 1.03352 9.13454 1.19949 9.30052L3.19949 11.3005C3.36546 11.4665 3.63456 11.4665 3.80053 11.3005L5.80053 9.30052C5.96651 9.13454 5.96651 8.86545 5.80053 8.69948C5.63456 8.5335 5.36546 8.5335 5.19949 8.69948L3.92501 9.97396V3Z" fill="#7C8DB5"/>
</svg>
