<svg width="24" height="25" viewBox="0 0 24 25" fill="none" xmlns="http://www.w3.org/2000/svg">
<path fill-rule="evenodd" clip-rule="evenodd" d="M3.84999 12.5C3.84999 7.99887 7.49887 4.34999 12 4.34999C12.8909 4.34999 13.7468 4.49263 14.5471 4.75567C14.9931 4.90225 15.4734 4.65955 15.62 4.21358C15.7666 3.76761 15.5239 3.28725 15.0779 3.14067C14.1084 2.82202 13.0735 2.64999 12 2.64999C6.55999 2.64999 2.14999 7.05999 2.14999 12.5C2.14999 17.94 6.55999 22.35 12 22.35C17.44 22.35 21.85 17.94 21.85 12.5C21.85 12.0306 21.4694 11.65 21 11.65C20.5306 11.65 20.15 12.0306 20.15 12.5C20.15 17.0011 16.5011 20.65 12 20.65C7.49887 20.65 3.84999 17.0011 3.84999 12.5ZM19.6023 8.09973C19.9336 7.76706 19.9324 7.22888 19.5997 6.89765C19.2671 6.56643 18.7289 6.56759 18.3977 6.90026L12.0496 13.2759L9.62092 10.678C9.30033 10.3351 8.76245 10.317 8.41952 10.6376C8.07659 10.9582 8.05848 11.4961 8.37907 11.839L11.4094 15.0805C11.5669 15.249 11.7862 15.3463 12.0169 15.3499C12.2476 15.3535 12.4699 15.2632 12.6326 15.0997L19.6023 8.09973Z" fill="#7C8DB5"/>
</svg>
