<svg width="28" height="28" viewBox="0 0 28 28" fill="none" xmlns="http://www.w3.org/2000/svg">
<path d="M16.3335 6.99999C16.3335 6.38115 16.0877 5.78766 15.6501 5.35007C15.2125 4.91249 14.619 4.66666 14.0002 4.66666C13.3813 4.66666 12.7878 4.91249 12.3502 5.35007C11.9127 5.78766 11.6668 6.38115 11.6668 6.99999C11.6668 7.61883 11.9127 8.21232 12.3502 8.64991C12.7878 9.08749 13.3813 9.33332 14.0002 9.33332C14.619 9.33332 15.2125 9.08749 15.6501 8.64991C16.0877 8.21232 16.3335 7.61883 16.3335 6.99999ZM16.3335 14C16.3335 13.3812 16.0877 12.7877 15.6501 12.3501C15.2125 11.9125 14.619 11.6667 14.0002 11.6667C13.3813 11.6667 12.7878 11.9125 12.3502 12.3501C11.9127 12.7877 11.6668 13.3812 11.6668 14C11.6668 14.6188 11.9127 15.2123 12.3502 15.6499C12.7878 16.0875 13.3813 16.3333 14.0002 16.3333C14.619 16.3333 15.2125 16.0875 15.6501 15.6499C16.0877 15.2123 16.3335 14.6188 16.3335 14ZM16.3335 21C16.3335 20.3812 16.0877 19.7877 15.6501 19.3501C15.2125 18.9125 14.619 18.6667 14.0002 18.6667C13.3813 18.6667 12.7878 18.9125 12.3502 19.3501C11.9127 19.7877 11.6668 20.3812 11.6668 21C11.6668 21.6188 11.9127 22.2123 12.3502 22.6499C12.7878 23.0875 13.3813 23.3333 14.0002 23.3333C14.619 23.3333 15.2125 23.0875 15.6501 22.6499C16.0877 22.2123 16.3335 21.6188 16.3335 21Z" fill="black"/>
</svg>
