<svg width="24" height="24" viewBox="0 0 24 24" fill="none" xmlns="http://www.w3.org/2000/svg">
<path fill-rule="evenodd" clip-rule="evenodd" d="M6.60537 6.51378C8.19355 7.05875 9.85686 5.9649 10.1523 4.45575C10.334 3.6714 10.5472 3.3284 10.7588 3.15285C10.963 2.9834 11.3113 2.84999 12.0681 2.84999C12.6537 2.84999 12.9861 2.99729 13.2032 3.2013C13.4367 3.42073 13.6532 3.81471 13.7831 4.52742L13.7831 4.52742L13.7839 4.53188C13.9393 5.35915 14.5089 5.98299 15.1709 6.3281C15.8348 6.67419 16.6677 6.78319 17.4529 6.50676C17.4638 6.50292 17.4746 6.49885 17.4854 6.49457C18.2385 6.19431 18.6479 6.20024 18.8979 6.28468C19.1438 6.36773 19.4259 6.5908 19.7749 7.18204C20.1315 7.78636 20.1785 8.1088 20.1376 8.32686C20.0947 8.55514 19.9137 8.8927 19.2772 9.42088L19.2655 9.43072C17.9883 10.5298 17.9883 12.4701 19.2655 13.5693L19.2772 13.5791C19.9137 14.1073 20.0947 14.4448 20.1376 14.6731C20.1785 14.8912 20.1315 15.2136 19.7749 15.8179C19.4279 16.4058 19.1416 16.6392 18.8818 16.7328C18.6166 16.8283 18.1994 16.8428 17.4486 16.5868C15.9258 16.0535 14.076 16.9607 13.7817 18.6708C13.6509 19.4305 13.4405 19.7311 13.2525 19.8767C13.0499 20.0337 12.6968 20.15 11.9699 20.15C11.2703 20.15 10.9103 20.0198 10.6988 19.8501C10.4938 19.6856 10.2861 19.3694 10.1574 18.6662C9.86052 16.9591 8.01275 16.054 6.49126 16.5867C5.74049 16.8428 5.3233 16.8283 5.05808 16.7328C4.79834 16.6392 4.51204 16.4058 4.16504 15.8179C4.16029 15.8099 4.15541 15.8019 4.15039 15.794C3.84533 15.3141 3.81342 14.9815 3.878 14.7201C3.95058 14.4262 4.18745 14.0489 4.7567 13.5825L4.77249 13.5693C6.07171 12.4512 5.92902 10.5134 4.67803 9.52704C4.11043 8.97074 3.93322 8.61707 3.89204 8.36078C3.85285 8.11685 3.90914 7.78512 4.25594 7.19432C4.574 6.6978 4.86758 6.48716 5.15516 6.39857C5.46392 6.30346 5.90804 6.3048 6.60537 6.51378ZM12.0681 1.14999C11.1567 1.14999 10.3275 1.30159 9.67315 1.84463C9.02738 2.38052 8.70223 3.17439 8.49211 4.08984C8.48957 4.10088 8.48726 4.11197 8.48517 4.12311C8.37911 4.68781 7.70759 5.09964 7.14969 4.90323C7.13774 4.89902 7.1257 4.89508 7.11357 4.89141C6.25006 4.63016 5.42296 4.53725 4.65468 4.77391C3.86511 5.01714 3.2779 5.5639 2.81381 6.29402C2.8088 6.30192 2.80391 6.30989 2.79916 6.31794C2.3674 7.04945 2.08131 7.80732 2.21357 8.63046C2.34332 9.438 2.84692 10.1206 3.52868 10.7807C3.55389 10.8051 3.58058 10.8279 3.60861 10.849C4.07858 11.2029 4.11427 11.8861 3.66994 12.2752C2.96812 12.8521 2.42399 13.5173 2.2276 14.3124C2.02343 15.139 2.23349 15.9423 2.70805 16.6939C3.1449 17.4308 3.69105 18.0473 4.48191 18.3322C5.27117 18.6165 6.12879 18.5071 7.04414 18.1943L7.04416 18.1944L7.05157 18.1918C7.68665 17.9682 8.38504 18.3908 8.48288 18.9592L8.48284 18.9592L8.48434 18.9674C8.65007 19.8766 8.98177 20.6521 9.63502 21.1762C10.2821 21.6952 11.0996 21.85 11.9699 21.85C12.8131 21.85 13.6375 21.7288 14.2935 21.2208C14.9641 20.7013 15.2934 19.9095 15.457 18.9592C15.5549 18.3908 16.2532 17.9682 16.8883 18.1918L16.8883 18.1918L16.8958 18.1943C17.8111 18.5071 18.6687 18.6165 19.458 18.3322C20.2531 18.0458 20.8008 17.4242 21.2389 16.682C21.6672 15.9564 21.9636 15.1863 21.8083 14.3594C21.6554 13.5452 21.1035 12.8868 20.3696 12.2765C19.887 11.8565 19.887 11.1435 20.3696 10.7235C21.1035 10.1132 21.6554 9.45483 21.8083 8.64063C21.9636 7.81368 21.6672 7.04363 21.2389 6.31794C20.8028 5.57918 20.2508 4.94726 19.4419 4.67406C18.6426 4.40414 17.7828 4.54864 16.8749 4.90785C16.5837 5.00575 16.2451 4.97098 15.9567 4.82064C15.6628 4.66739 15.4965 4.43702 15.455 4.21978C15.2904 3.31864 14.9673 2.52618 14.3673 1.96243C13.7504 1.3827 12.9543 1.14999 12.0681 1.14999ZM9.85002 11.5C9.85002 10.3126 10.8126 9.34999 12 9.34999C13.1874 9.34999 14.15 10.3126 14.15 11.5C14.15 12.6874 13.1874 13.65 12 13.65C10.8126 13.65 9.85002 12.6874 9.85002 11.5ZM12 7.64999C9.87372 7.64999 8.15002 9.3737 8.15002 11.5C8.15002 13.6263 9.87372 15.35 12 15.35C14.1263 15.35 15.85 13.6263 15.85 11.5C15.85 9.3737 14.1263 7.64999 12 7.64999Z" fill="#7C8DB5"/>
</svg>
