<svg width="20" height="20" viewBox="0 0 20 20" fill="none" xmlns="http://www.w3.org/2000/svg">
<path d="M7.21371 4.79669C7.06294 4.94747 6.97058 5.15699 6.97088 5.3871L6.97088 5.48838C6.97088 5.94917 7.34391 6.32221 7.80412 6.32162L12.357 6.32162L4.65529 14.0234C4.33002 14.3486 4.33002 14.8766 4.65529 15.2019C4.98056 15.5272 5.50853 15.5272 5.8338 15.2019L13.5356 7.50013V12.0531C13.5356 12.5138 13.9086 12.8869 14.3688 12.8863H14.4701C14.9309 12.8863 15.3039 12.5133 15.3033 12.0531V5.3871C15.3033 4.9263 14.9303 4.55326 14.4701 4.55385L7.80412 4.55385C7.57372 4.55385 7.36449 4.64592 7.21371 4.79669Z" fill="#7C8DB5"/>
</svg>
