<svg width="71" height="70" viewBox="0 0 71 70" fill="none" xmlns="http://www.w3.org/2000/svg">
<rect x="0.666504" width="70" height="70" rx="35" fill="#D52E9C"/>
<g clip-path="url(#clip0_32_362)">
<path d="M26.333 41.6667C26.333 42.3739 26.614 43.0522 27.1141 43.5523C27.6142 44.0524 28.2924 44.3333 28.9997 44.3333C29.7069 44.3333 30.3852 44.0524 30.8853 43.5523C31.3854 43.0522 31.6663 42.3739 31.6663 41.6667C31.6663 40.9594 31.3854 40.2811 30.8853 39.781C30.3852 39.281 29.7069 39 28.9997 39C28.2924 39 27.6142 39.281 27.1141 39.781C26.614 40.2811 26.333 40.9594 26.333 41.6667Z" stroke="white" stroke-width="2" stroke-linecap="round" stroke-linejoin="round"/>
<path d="M39.6665 41.6667C39.6665 42.3739 39.9475 43.0522 40.4476 43.5523C40.9477 44.0524 41.6259 44.3333 42.3332 44.3333C43.0404 44.3333 43.7187 44.0524 44.2188 43.5523C44.7189 43.0522 44.9998 42.3739 44.9998 41.6667C44.9998 40.9594 44.7189 40.2811 44.2188 39.781C43.7187 39.281 43.0404 39 42.3332 39C41.6259 39 40.9477 39.281 40.4476 39.781C39.9475 40.2811 39.6665 40.9594 39.6665 41.6667Z" stroke="white" stroke-width="2" stroke-linecap="round" stroke-linejoin="round"/>
<path d="M26.333 41.6665H23.6663V36.3332M22.333 25.6665H36.9997V41.6665M31.6663 41.6665H39.6663M44.9997 41.6665H47.6663V33.6665M47.6663 33.6665H36.9997M47.6663 33.6665L43.6663 26.9998H36.9997" stroke="white" stroke-width="2" stroke-linecap="round" stroke-linejoin="round"/>
<path d="M23.6665 31H28.9998" stroke="white" stroke-width="2" stroke-linecap="round" stroke-linejoin="round"/>
</g>
<defs>
<clipPath id="clip0_32_362">
<rect width="32" height="32" fill="white" transform="translate(19.6665 19)"/>
</clipPath>
</defs>
</svg>
