<svg width="25" height="24" viewBox="0 0 25 24" fill="none" xmlns="http://www.w3.org/2000/svg">
<path fill-rule="evenodd" clip-rule="evenodd" d="M12.3335 2C16.2035 2 19.3335 5.13 19.3335 9C19.3335 14.25 12.3335 22 12.3335 22C12.3335 22 5.3335 14.25 5.3335 9C5.3335 5.13 8.4635 2 12.3335 2ZM7.3335 9C7.3335 11.85 10.2535 16.21 12.3335 18.88C14.4535 16.19 17.3335 11.88 17.3335 9C17.3335 6.24 15.0935 4 12.3335 4C9.5735 4 7.3335 6.24 7.3335 9ZM12.3335 11.5C10.9528 11.5 9.8335 10.3807 9.8335 9C9.8335 7.61929 10.9528 6.5 12.3335 6.5C13.7142 6.5 14.8335 7.61929 14.8335 9C14.8335 10.3807 13.7142 11.5 12.3335 11.5Z" fill="white"/>
</svg>
