<svg width="25" height="24" viewBox="0 0 25 24" fill="none" xmlns="http://www.w3.org/2000/svg">
<path fill-rule="evenodd" clip-rule="evenodd" d="M6.87279 5C6.93279 5.89 7.08279 6.76 7.32279 7.59L6.12279 8.79C5.71279 7.59 5.45279 6.32 5.36279 5H6.87279ZM16.7327 17.02C17.5827 17.26 18.4527 17.41 19.3327 17.47V18.96C18.0127 18.87 16.7427 18.61 15.5327 18.21L16.7327 17.02ZM7.8335 3H4.3335C3.7835 3 3.3335 3.45 3.3335 4C3.3335 13.39 10.9435 21 20.3335 21C20.8835 21 21.3335 20.55 21.3335 20V16.51C21.3335 15.96 20.8835 15.51 20.3335 15.51C19.0935 15.51 17.8835 15.31 16.7635 14.94C16.6635 14.9 16.5535 14.89 16.4535 14.89C16.1935 14.89 15.9435 14.99 15.7435 15.18L13.5435 17.38C10.7135 15.93 8.3935 13.62 6.9535 10.79L9.1535 8.59C9.4335 8.31 9.5135 7.92 9.4035 7.57C9.0335 6.45 8.8335 5.25 8.8335 4C8.8335 3.45 8.3835 3 7.8335 3Z" fill="white"/>
</svg>
