<svg width="418" height="319" viewBox="0 0 418 319" fill="none" xmlns="http://www.w3.org/2000/svg">
<path d="M209.313 257.114C262.077 257.114 304.849 214.23 304.849 161.329C304.849 108.429 262.077 65.5449 209.313 65.5449C156.55 65.5449 113.777 108.429 113.777 161.329C113.777 214.23 156.55 257.114 209.313 257.114Z" fill="#FFDCF3" stroke="#D52E9C" stroke-width="4" stroke-miterlimit="10" stroke-linecap="round" stroke-linejoin="round"/>
<path d="M269.583 219.95L264.685 217.723L259.803 215.596L254.747 213.52L249.349 211.264L243.772 209.048L239.552 207.416L237.521 205.79L236.41 202.927L235.063 198.533L233.846 195.011L231.91 194.077L231.197 193.363L231.371 182.308L232.387 178.426L234.609 174.663L236.752 168.626L238.082 163.062L238.385 162.624L240.59 158.545L241.494 153.054L242.083 146.106L240.405 144.464L239.597 143.659L239.608 135.08L239.446 117.162L239.193 115.406L236.528 110.293L232.274 105.635L223.33 98.8329L223.168 96.4983C223.134 95.9863 222.803 95.5362 222.32 95.3562C217.848 93.6572 212.972 93.3366 208.32 94.4392L201.211 96.4983L194.225 99.5305L186.981 104.504L181.19 112.177L179.872 117.865L179.754 124.245L179.591 132.183L179.574 143.102L178.8 143.834L178.334 143.828L176.763 145.42L176.92 147.507L177.145 150.911L177.689 155.293L179.989 161.521L180.775 162.646L181.589 166.005L183.21 172.834L187.587 179.58L188.238 181.808L187.688 186.106L187.031 193.594L186.728 194.044L185.533 194.246L183.558 195.129L182.217 199.101L181.858 201.149L180.04 205.312L179.322 206.786L177.908 207.382L172.123 209.728L167.23 211.787L160.895 214.454L154.459 217.402L147.394 220.676L138.253 225.486C155.738 244.912 181.044 257.126 209.201 257.126C237.493 257.126 262.906 244.794 280.402 225.199L276.777 223.371L269.583 219.95Z" fill="#D52E9C"/>
<path d="M105.018 250.128L60.7793 287.787" stroke="#D52E9C" stroke-width="4.9111" stroke-miterlimit="10" stroke-linecap="round" stroke-linejoin="round" stroke-dasharray="9.82 9.82"/>
<path d="M72.4845 161.331H14.4536" stroke="#D52E9C" stroke-width="4.9111" stroke-miterlimit="10" stroke-linecap="round" stroke-linejoin="round" stroke-dasharray="9.82 9.82"/>
<path d="M313.266 250.825L357.241 288.794" stroke="#D52E9C" stroke-width="4.9111" stroke-miterlimit="10" stroke-linecap="round" stroke-linejoin="round" stroke-dasharray="9.82 9.82"/>
<path d="M313.002 68.4598L357.241 30.8008" stroke="#D52E9C" stroke-width="4.9111" stroke-miterlimit="10" stroke-linecap="round" stroke-linejoin="round" stroke-dasharray="9.82 9.82"/>
<path d="M104.749 67.7623L60.7793 29.7939" stroke="#D52E9C" stroke-width="4.9111" stroke-miterlimit="10" stroke-linecap="round" stroke-linejoin="round" stroke-dasharray="9.82 9.82"/>
<path d="M60.546 29.7068L2.45361 29.293" stroke="#D52E9C" stroke-width="4.9111" stroke-miterlimit="10" stroke-linecap="round" stroke-linejoin="round" stroke-dasharray="9.82 9.82"/>
<path d="M415.546 29.7068L357.454 29.293" stroke="#D52E9C" stroke-width="4.9111" stroke-miterlimit="10" stroke-linecap="round" stroke-linejoin="round" stroke-dasharray="9.82 9.82"/>
<path d="M415.546 289.707L357.454 289.293" stroke="#D52E9C" stroke-width="4.9111" stroke-miterlimit="10" stroke-linecap="round" stroke-linejoin="round" stroke-dasharray="9.82 9.82"/>
<path d="M60.546 287.707L2.45361 287.293" stroke="#D52E9C" stroke-width="4.9111" stroke-miterlimit="10" stroke-linecap="round" stroke-linejoin="round" stroke-dasharray="9.82 9.82"/>
<path d="M346.423 161.331H404.454" stroke="#D52E9C" stroke-width="4.9111" stroke-miterlimit="10" stroke-linecap="round" stroke-linejoin="round" stroke-dasharray="9.82 9.82"/>
<path d="M231.263 45.2939C231.998 45.429 232.728 45.5696 233.463 45.7159C240.331 47.0998 247.165 49.1195 253.904 51.8086C258.174 53.5132 262.287 55.4372 266.243 57.5638" stroke="#D52E9C" stroke-width="4.9111" stroke-miterlimit="10" stroke-linecap="round" stroke-linejoin="round" stroke-dasharray="9.82 9.82"/>
<path d="M168.929 49.8903C176.925 46.9311 189.802 43.6175 203.286 43.0381" stroke="#D52E9C" stroke-width="4.9111" stroke-miterlimit="10" stroke-linecap="round" stroke-linejoin="round" stroke-dasharray="9.82 9.82"/>
<path d="M158.649 267.956C141.305 259.501 126.862 247.225 115.926 232.564" stroke="#D52E9C" stroke-width="4.9111" stroke-miterlimit="10" stroke-linecap="round" stroke-linejoin="round" stroke-dasharray="9.82 9.82"/>
<path d="M286.988 251.552C280.266 257.301 272.949 262.258 265.189 266.336C256.244 271.045 246.717 274.595 236.852 276.89" stroke="#D52E9C" stroke-width="4.9111" stroke-miterlimit="10" stroke-linecap="round" stroke-linejoin="round" stroke-dasharray="9.82 9.82"/>
<path d="M114.63 233.594C105.652 221.521 99.0309 207.851 95.0975 193.37C88.5492 169.258 89.4582 142.895 99.3788 117.883C106.544 99.8131 117.615 84.4716 131.228 72.438C142.344 62.6098 155.154 54.9925 168.924 49.8955" stroke="#D52E9C" stroke-width="8" stroke-miterlimit="10" stroke-linecap="round" stroke-linejoin="round"/>
<path d="M236.999 278.544C218.156 282.921 198.096 282.752 178.491 277.306C174.344 276.153 170.214 274.763 166.118 273.132" stroke="#D52E9C" stroke-width="8" stroke-miterlimit="10" stroke-linecap="round" stroke-linejoin="round"/>
<path d="M315.078 105.22C326.418 126.288 331.423 150.648 328.724 175.12C327.574 185.55 325.026 195.997 320.97 206.219C314.679 222.084 305.376 235.85 293.985 247.119" stroke="#D52E9C" stroke-width="8" stroke-miterlimit="10" stroke-linecap="round" stroke-linejoin="round"/>
</svg>
