<svg width="1440" height="874" viewBox="0 0 1440 874" fill="none" xmlns="http://www.w3.org/2000/svg">
<mask id="mask0_29_320" style="mask-type:luminance" maskUnits="userSpaceOnUse" x="0" y="0" width="1441" height="874">
<path d="M0 874L1440 874L1440 0.00012207L8.17022e-05 4.33961e-06L0 874Z" fill="white"/>
</mask>
<g mask="url(#mask0_29_320)">
<path opacity="0.5" d="M-536.793 648.971C-528.984 670.074 -519.759 691.716 -494.218 710.939C-468.682 730.162 -423.168 746.721 -373.696 748.222C-282.989 750.98 -216.83 704.705 -128.186 717.336C-60.7267 726.949 -25.0445 766.514 43.9146 771.673C115.11 776.999 162.712 741.187 233.977 743.382C306.871 745.626 353.97 784.984 425.839 793.806C517.826 805.096 590.968 761.466 684.296 767.303C774.73 772.957 838.806 822.263 929.044 823.839C999.821 825.075 1050.39 795.436 1121.21 796.972C1161.07 797.838 1198.36 808.516 1231.85 819.368C1277.25 834.084 1329 851.902 1385.36 845.832C1418.38 842.284 1436.56 834.28 1444.96 820.688C1455.9 802.984 1468.02 786.218 1482.31 769.007C1518.98 724.831 1548.8 678.593 1549.11 629.765C1549.53 562.884 1483.84 488.63 1346.97 448.64C1250.06 420.326 1133.04 412.849 1021.32 406.227C763.01 390.92 504.703 375.613 246.397 360.307C117.668 352.677 -12.5316 345.034 -138.332 350.555C-264.132 356.077 -387.07 376.154 -463.542 416.342C-577.93 476.441 -567.171 566.883 -536.793 648.971Z" fill="#FF5FEF" fill-opacity="0.5"/>
<path opacity="0.5" d="M-197.921 656.588C-190.115 677.689 -180.894 699.33 -155.355 718.55C-129.821 737.769 -84.3041 754.322 -34.8368 755.816C55.8716 758.563 122.038 712.28 210.682 724.9C278.141 734.505 313.818 774.064 382.777 779.215C453.973 784.531 501.581 748.715 572.847 750.901C645.741 753.136 692.835 792.487 764.704 801.299C856.691 812.578 929.84 768.939 1023.17 774.764C1113.6 780.406 1177.67 829.703 1267.91 831.269C1338.69 832.495 1389.26 802.851 1460.09 804.377C1499.95 805.239 1537.23 815.912 1570.72 826.759C1616.12 841.469 1667.87 859.281 1724.24 853.203C1757.25 849.642 1775.44 841.636 1783.84 828.043C1794.78 810.338 1806.9 793.571 1821.19 776.358C1857.87 732.178 1887.7 685.938 1888.01 637.111C1888.44 570.231 1822.76 495.986 1685.9 456.014C1588.99 427.713 1471.97 420.251 1360.24 413.643C1101.94 398.369 843.628 383.095 585.32 367.821C456.59 360.207 326.39 352.581 200.582 358.118C74.7789 363.655 -48.1645 383.747 -124.643 423.944C-239.028 484.066 -228.283 574.505 -197.921 656.588Z" fill="#FF47C3" fill-opacity="0.5"/>
<path opacity="0.5" d="M-533.395 597.437C-525.586 618.54 -516.361 640.183 -490.82 659.406C-465.284 678.629 -419.77 695.188 -370.299 696.688C-279.591 699.447 -213.433 653.171 -124.788 665.802C-57.3288 675.416 -21.6467 714.98 47.3124 720.14C118.508 725.465 166.11 689.654 237.375 691.849C310.269 694.093 357.368 733.451 429.237 742.272C521.224 753.563 594.366 709.932 687.694 715.77C778.128 721.428 842.204 770.729 932.442 772.306C1003.22 773.541 1053.78 743.903 1124.61 745.438C1164.47 746.304 1201.76 756.983 1235.25 767.834C1280.65 782.55 1332.4 800.369 1388.76 794.298C1421.77 790.741 1439.96 782.737 1448.36 769.145C1459.3 751.441 1471.41 734.675 1485.71 717.464C1522.38 673.288 1552.2 627.05 1552.5 578.223C1552.92 511.341 1487.23 437.087 1350.36 397.097C1253.45 368.783 1136.43 361.306 1024.71 354.684C766.403 339.378 508.097 324.071 249.791 308.764C121.061 301.134 -9.1381 293.491 -134.938 299.012C-260.738 304.534 -383.677 324.611 -460.149 364.799C-574.532 424.907 -563.773 515.349 -533.395 597.437Z" fill="#FF00A8" fill-opacity="0.5"/>
<path d="M-945.314 570.731C-929.405 606.482 -910.986 643.031 -864.627 673.827C-818.277 704.624 -737.675 728.892 -651.961 726.735C-494.787 722.792 -385.654 636.393 -230.921 649.725C-113.17 659.872 -46.9561 724.878 72.8823 727.178C196.607 729.548 274.844 663.033 398.332 659.982C524.643 656.861 610.576 720.413 735.864 728.766C896.223 739.458 1017.73 656.963 1179.79 658.094C1336.82 659.192 1453.25 738.312 1609.47 732.37C1732.01 727.707 1816.07 671.583 1938.73 667.434C2007.75 665.103 2073.45 679.992 2132.6 695.544C2212.79 716.636 2304.31 742.485 2401.09 726.569C2457.78 717.244 2488.31 701.653 2501.28 677.336C2518.18 645.663 2537.23 615.499 2559.98 584.355C2618.36 504.421 2664.66 421.578 2659.62 337.092C2652.73 221.367 2530.67 99.2406 2289.42 43.2194C2118.61 3.55641 1915.4 1.86523 1721.44 1.1461C1273.01 -0.51348 824.577 -2.17306 376.146 -3.83265C152.665 -4.66244 -73.3586 -5.37376 -290.283 16.2634C-507.199 37.9006 -717.507 84.4389 -845.169 161.299C-1036.1 276.258 -1007.19 431.661 -945.314 570.731Z" fill="url(#paint0_linear_29_320)"/>
</g>
<defs>
<linearGradient id="paint0_linear_29_320" x1="-72.9999" y1="170.761" x2="1459.21" y2="766.548" gradientUnits="userSpaceOnUse">
<stop stop-color="#247EBF"/>
<stop offset="0.375" stop-color="#BD96E3"/>
<stop offset="0.69" stop-color="#CE7ADF"/>
<stop offset="1" stop-color="#E798E7"/>
</linearGradient>
</defs>
</svg>
