<svg width="419" height="318" viewBox="0 0 419 318" fill="none" xmlns="http://www.w3.org/2000/svg">
<path d="M209.86 256.32C262.623 256.32 305.396 213.436 305.396 160.536C305.396 107.635 262.623 64.751 209.86 64.751C157.097 64.751 114.324 107.635 114.324 160.536C114.324 213.436 157.097 256.32 209.86 256.32Z" fill="#FFDCF3" stroke="#D52E9C" stroke-width="4" stroke-miterlimit="10" stroke-linecap="round" stroke-linejoin="round"/>
<path d="M270.13 219.156L265.231 216.929L260.349 214.802L255.294 212.726L249.896 210.47L244.318 208.254L240.099 206.622L238.067 204.996L236.956 202.133L235.61 197.739L234.392 194.217L232.456 193.283L231.744 192.569L231.917 181.514L232.933 177.633L235.155 173.869L237.299 167.832L238.628 162.269L238.931 161.83L241.137 157.751L242.04 152.26L242.629 145.312L240.951 143.67L240.143 142.865L240.155 134.286L239.992 116.368L239.739 114.613L237.074 109.499L232.821 104.841L223.877 98.039L223.714 95.7043C223.68 95.1924 223.349 94.7423 222.867 94.5623C218.394 92.8633 213.518 92.5426 208.867 93.6453L201.757 95.7043L194.771 98.7366L187.527 103.71L181.737 111.383L180.418 117.071L180.3 123.451L180.137 131.389L180.121 142.308L179.346 143.04L178.881 143.034L177.309 144.626L177.467 146.713L177.691 150.117L178.235 154.499L180.536 160.727L181.321 161.852L182.135 165.211L183.757 172.041L188.133 178.786L188.784 181.014L188.234 185.312L187.578 192.8L187.275 193.25L186.08 193.452L184.105 194.335L182.763 198.307L182.404 200.355L180.586 204.518L179.868 205.992L178.454 206.588L172.669 208.934L167.776 210.993L161.441 213.66L155.005 216.608L147.94 219.882L138.8 224.692C156.284 244.118 181.591 256.332 209.748 256.332C238.039 256.332 263.452 244 280.948 224.405L277.323 222.577L270.13 219.156Z" fill="#D52E9C"/>
<path d="M105.565 249.334L61.3262 286.993" stroke="#D52E9C" stroke-width="4.9111" stroke-miterlimit="10" stroke-linecap="round" stroke-linejoin="round" stroke-dasharray="9.82 9.82"/>
<path d="M73.0309 160.537H15" stroke="#D52E9C" stroke-width="4.9111" stroke-miterlimit="10" stroke-linecap="round" stroke-linejoin="round" stroke-dasharray="9.82 9.82"/>
<path d="M313.812 250.031L357.787 288" stroke="#D52E9C" stroke-width="4.9111" stroke-miterlimit="10" stroke-linecap="round" stroke-linejoin="round" stroke-dasharray="9.82 9.82"/>
<path d="M313.549 67.6658L357.787 30.0068" stroke="#D52E9C" stroke-width="4.9111" stroke-miterlimit="10" stroke-linecap="round" stroke-linejoin="round" stroke-dasharray="9.82 9.82"/>
<path d="M105.295 66.9684L61.3262 29" stroke="#D52E9C" stroke-width="4.9111" stroke-miterlimit="10" stroke-linecap="round" stroke-linejoin="round" stroke-dasharray="9.82 9.82"/>
<path d="M61.0924 28.9129L3 28.499" stroke="#D52E9C" stroke-width="4.9111" stroke-miterlimit="10" stroke-linecap="round" stroke-linejoin="round" stroke-dasharray="9.82 9.82"/>
<path d="M416.092 28.9129L358 28.499" stroke="#D52E9C" stroke-width="4.9111" stroke-miterlimit="10" stroke-linecap="round" stroke-linejoin="round" stroke-dasharray="9.82 9.82"/>
<path d="M416.092 288.913L358 288.499" stroke="#D52E9C" stroke-width="4.9111" stroke-miterlimit="10" stroke-linecap="round" stroke-linejoin="round" stroke-dasharray="9.82 9.82"/>
<path d="M61.0924 286.913L3 286.499" stroke="#D52E9C" stroke-width="4.9111" stroke-miterlimit="10" stroke-linecap="round" stroke-linejoin="round" stroke-dasharray="9.82 9.82"/>
<path d="M346.969 160.537H405" stroke="#D52E9C" stroke-width="4.9111" stroke-miterlimit="10" stroke-linecap="round" stroke-linejoin="round" stroke-dasharray="9.82 9.82"/>
<path d="M231.81 44.5C232.545 44.635 233.274 44.7757 234.009 44.9219C240.877 46.3059 247.712 48.3255 254.451 51.0147C258.721 52.7193 262.834 54.6433 266.79 56.7698" stroke="#D52E9C" stroke-width="4.9111" stroke-miterlimit="10" stroke-linecap="round" stroke-linejoin="round" stroke-dasharray="9.82 9.82"/>
<path d="M169.476 49.0964C177.472 46.1372 190.349 42.8236 203.833 42.2441" stroke="#D52E9C" stroke-width="4.9111" stroke-miterlimit="10" stroke-linecap="round" stroke-linejoin="round" stroke-dasharray="9.82 9.82"/>
<path d="M159.196 267.162C141.852 258.707 127.409 246.431 116.473 231.771" stroke="#D52E9C" stroke-width="4.9111" stroke-miterlimit="10" stroke-linecap="round" stroke-linejoin="round" stroke-dasharray="9.82 9.82"/>
<path d="M287.534 250.758C280.812 256.507 273.495 261.464 265.735 265.542C256.791 270.251 247.263 273.801 237.398 276.096" stroke="#D52E9C" stroke-width="4.9111" stroke-miterlimit="10" stroke-linecap="round" stroke-linejoin="round" stroke-dasharray="9.82 9.82"/>
<path d="M115.177 232.8C106.199 220.727 99.5778 207.057 95.6443 192.576C89.0961 168.464 90.0051 142.101 99.9257 117.089C107.091 99.0191 118.162 83.6776 131.775 71.6441C142.891 61.8158 155.701 54.1985 169.471 49.1016" stroke="#D52E9C" stroke-width="8" stroke-miterlimit="10" stroke-linecap="round" stroke-linejoin="round"/>
<path d="M237.546 277.75C218.703 282.127 198.643 281.958 179.038 276.512C174.891 275.359 170.761 273.969 166.665 272.338" stroke="#D52E9C" stroke-width="8" stroke-miterlimit="10" stroke-linecap="round" stroke-linejoin="round"/>
<path d="M315.625 104.426C326.965 125.494 331.97 149.854 329.271 174.326C328.121 184.756 325.573 195.203 321.516 205.425C315.226 221.29 305.923 235.056 294.532 246.325" stroke="#D52E9C" stroke-width="8" stroke-miterlimit="10" stroke-linecap="round" stroke-linejoin="round"/>
</svg>
