<svg width="283" height="164" viewBox="0 0 283 164" fill="none" xmlns="http://www.w3.org/2000/svg">
<path d="M0 24L190.125 24L283 164H0V24Z" fill="white"/>
<path d="M193 48C206.255 48 217 37.2548 217 24C217 10.7452 206.255 0 193 0C179.745 0 169 10.7452 169 24C169 37.2548 179.745 48 193 48Z" fill="url(#paint0_linear_0_1)"/>
<path d="M206.169 20.4951C206.169 17.308 203.581 14.7197 200.394 14.7197H185.656C182.469 14.7197 179.88 17.308 179.88 20.4951V27.3614C179.88 30.5486 182.469 33.1368 185.656 33.1368H200.394C203.581 33.1368 206.169 30.5486 206.169 27.3614V20.4951ZM197.506 24.431L190.896 27.7037C190.64 27.8534 189.763 27.6609 189.763 27.3614V20.6449C189.763 20.3454 190.661 20.1529 190.918 20.3026L197.249 23.7465C197.485 23.8962 197.763 24.2812 197.506 24.431Z" fill="white"/>
<defs>
<linearGradient id="paint0_linear_0_1" x1="209.981" y1="7.02225" x2="176.028" y2="40.976" gradientUnits="userSpaceOnUse">
<stop stop-color="#FF0000"/>
<stop offset="1" stop-color="#850000"/>
</linearGradient>
</defs>
</svg>
