<svg width="37" height="28" viewBox="0 0 37 28" fill="none" xmlns="http://www.w3.org/2000/svg">
<path d="M0.166016 8.45764V16.7714H5.69099H11.216L11.1814 17.3083C11.0517 19.075 10.6367 20.5559 9.80662 22.2706C8.95064 24.046 7.92173 25.5095 6.44322 27.051L5.68235 27.8564H8.43186H11.19L11.8731 26.9991C13.7926 24.5742 15.5564 21.5518 16.1962 19.586C16.7496 17.8713 16.7064 18.6074 16.7409 8.95127L16.7755 0.143862H8.46645H0.166016V8.45764Z" fill="white"/>
<path d="M20.3984 8.45764V16.7714H25.9407H31.4916L31.4397 17.5248C31.2495 20.6339 29.5462 24.0979 26.7967 26.9991C26.373 27.4494 26.0185 27.8218 26.0185 27.8305C26.0185 27.8478 27.2376 27.8564 28.7335 27.8564H31.4484L31.8375 27.3975C32.4081 26.722 33.1776 25.6741 33.8607 24.6522C35.4603 22.262 36.4114 20.2355 36.835 18.3302C36.982 17.6374 36.9993 17.1005 36.9993 8.86467V0.143862H28.6989H20.3984V8.45764Z" fill="white"/>
</svg>
