<svg xmlns="http://www.w3.org/2000/svg" xmlns:xlink="http://www.w3.org/1999/xlink" fill="none" version="1.1" width="24" height="24" viewBox="0 0 24 24"><g><g transform="matrix(1,-3.278353943869661e-8,3.278353943869661e-8,1,-2.2948477607087625e-7,3.934024732643593e-7)"><path d="M12,6L20,6Q20.098489999999998,6,20.19509,6.019215Q20.29169,6.03843,20.38268,6.076121Q20.47368,6.113812,20.55557,6.16853Q20.63746,6.223249,20.70711,6.292893Q20.77675,6.362537,20.83147,6.44443Q20.88619,6.526322,20.92388,6.617317Q20.961570000000002,6.708311,20.98078,6.80491Q21,6.9015086,21,7Q21,7.0984914,20.98078,7.19509Q20.961570000000002,7.291689,20.92388,7.382683Q20.88619,7.473678,20.83147,7.55557Q20.77675,7.637463,20.70711,7.707107Q20.63746,7.776751,20.55557,7.83147Q20.47368,7.886188,20.38268,7.923879Q20.29169,7.96157,20.19509,7.980785Q20.098489999999998,8,20,8L12,8Q11.9015086,8,11.80491,7.980785Q11.708311,7.96157,11.617317,7.923879Q11.526322,7.886188,11.44443,7.83147Q11.362537,7.776751,11.292893,7.707107Q11.223249,7.637463,11.16853,7.55557Q11.113812,7.473678,11.076121,7.382683Q11.03843,7.291689,11.019214999999999,7.19509Q11,7.0984914,11,7Q11,6.9015086,11.019214999999999,6.80491Q11.03843,6.708311,11.076121,6.617317Q11.113812,6.526322,11.16853,6.44443Q11.223249,6.362537,11.292893,6.292893Q11.362537,6.223249,11.44443,6.16853Q11.526322,6.113812,11.617317,6.076121Q11.708311,6.03843,11.80491,6.019215Q11.9015086,6,12,6Z" fill-rule="evenodd" fill="#3C9EEA" fill-opacity="1"/></g><g transform="matrix(1,-7.868049323178639e-8,7.868049323178639e-8,1,-5.507634526225047e-7,3.1472197292714554e-7)"><path d="M4,6L8,6Q8.09849,6,8.19509,6.019215Q8.29169,6.03843,8.38268,6.076121Q8.47368,6.113812,8.55557,6.16853Q8.63746,6.223249,8.70711,6.292893Q8.77675,6.362537,8.83147,6.44443Q8.88619,6.526322,8.92388,6.617317Q8.96157,6.708311,8.98078,6.80491Q9,6.9015086,9,7Q9,7.0984914,8.98078,7.19509Q8.96157,7.291689,8.92388,7.382683Q8.88619,7.473678,8.83147,7.55557Q8.77675,7.637463,8.70711,7.707107Q8.63746,7.776751,8.55557,7.83147Q8.47368,7.886188,8.38268,7.923879Q8.29169,7.96157,8.19509,7.980785Q8.09849,8,8,8L4,8Q3.9015086,8,3.80491,7.980785Q3.708311,7.96157,3.617317,7.923879Q3.526322,7.886188,3.44443,7.83147Q3.362537,7.776751,3.292893,7.707107Q3.223249,7.637463,3.16853,7.55557Q3.1138120000000002,7.473678,3.076121,7.382683Q3.03843,7.291689,3.019215,7.19509Q3,7.0984914,3,7Q3,6.9015086,3.019215,6.80491Q3.03843,6.708311,3.076121,6.617317Q3.1138120000000002,6.526322,3.16853,6.44443Q3.223249,6.362537,3.292893,6.292893Q3.362537,6.223249,3.44443,6.16853Q3.526322,6.113812,3.617317,6.076121Q3.708311,6.03843,3.80491,6.019215Q3.9015086,6,4,6Z" fill-rule="evenodd" fill="#3C9EEA" fill-opacity="1"/></g><g transform="matrix(1,8.74227694680485e-8,-8.74227694680485e-8,1,0.0000014861870809568245,-0.0000014861870809568245)"><path d="M17,16L20,16Q20.098489999999998,16,20.19509,16.019215Q20.29169,16.038429999999998,20.38268,16.076121Q20.47368,16.113812,20.55557,16.16853Q20.63746,16.223249,20.70711,16.292893Q20.77675,16.362537,20.83147,16.44443Q20.88619,16.526322,20.92388,16.617317Q20.961570000000002,16.708311,20.98078,16.80491Q21,16.9015086,21,17Q21,17.0984914,20.98078,17.19509Q20.961570000000002,17.291689,20.92388,17.382683Q20.88619,17.473678,20.83147,17.55557Q20.77675,17.637463,20.70711,17.707107Q20.63746,17.776751,20.55557,17.83147Q20.47368,17.886188,20.38268,17.923879Q20.29169,17.961570000000002,20.19509,17.980785Q20.098489999999998,18,20,18L17,18Q16.9015086,18,16.80491,17.980785Q16.708311,17.961570000000002,16.617317,17.923879Q16.526322,17.886188,16.44443,17.83147Q16.362537,17.776751,16.292893,17.707107Q16.223249,17.637463,16.16853,17.55557Q16.113812,17.473678,16.076121,17.382683Q16.038429999999998,17.291689,16.019215,17.19509Q16,17.0984914,16,17Q16,16.9015086,16.019215,16.80491Q16.038429999999998,16.708311,16.076121,16.617317Q16.113812,16.526322,16.16853,16.44443Q16.223249,16.362537,16.292893,16.292893Q16.362537,16.223249,16.44443,16.16853Q16.526322,16.113812,16.617317,16.076121Q16.708311,16.038429999999998,16.80491,16.019215Q16.9015086,16,17,16Z" fill-rule="evenodd" fill="#3C9EEA" fill-opacity="1"/></g><g transform="matrix(1,-1.5211563209049928e-7,1.5211563209049928e-7,1,-0.0000025859657455384877,6.084625283619971e-7)"><path d="M4,16L12,16Q12.09849,16,12.19509,16.019215Q12.29169,16.038429999999998,12.38268,16.076121Q12.47368,16.113812,12.55557,16.16853Q12.63746,16.223249,12.70711,16.292893Q12.77675,16.362537,12.83147,16.44443Q12.88619,16.526322,12.92388,16.617317Q12.96157,16.708311,12.98078,16.80491Q13,16.9015086,13,17Q13,17.0984914,12.98078,17.19509Q12.96157,17.291689,12.92388,17.382683Q12.88619,17.473678,12.83147,17.55557Q12.77675,17.637463,12.70711,17.707107Q12.63746,17.776751,12.55557,17.83147Q12.47368,17.886188,12.38268,17.923879Q12.29169,17.961570000000002,12.19509,17.980785Q12.09849,18,12,18L4,18Q3.9015086,18,3.80491,17.980785Q3.708311,17.961570000000002,3.617317,17.923879Q3.526322,17.886188,3.44443,17.83147Q3.362537,17.776751,3.292893,17.707107Q3.223249,17.637463,3.16853,17.55557Q3.1138120000000002,17.473678,3.076121,17.382683Q3.03843,17.291689,3.019215,17.19509Q3,17.0984914,3,17Q3,16.9015086,3.019215,16.80491Q3.03843,16.708311,3.076121,16.617317Q3.1138120000000002,16.526322,3.16853,16.44443Q3.223249,16.362537,3.292893,16.292893Q3.362537,16.223249,3.44443,16.16853Q3.526322,16.113812,3.617317,16.076121Q3.708311,16.038429999999998,3.80491,16.019215Q3.9015086,16,4,16Z" fill-rule="evenodd" fill="#3C9EEA" fill-opacity="1"/></g><g transform="matrix(0,1,-1,0,17,-7)"><ellipse cx="14" cy="7" rx="2" ry="2" fill-opacity="0" stroke-opacity="1" stroke="#3C9EEA" fill="none" stroke-width="2" stroke-linecap="ROUND"/></g><g transform="matrix(0,1,-1,0,32,-2)"><ellipse cx="19" cy="17" rx="2" ry="2" fill-opacity="0" stroke-opacity="1" stroke="#3C9EEA" fill="none" stroke-width="2" stroke-linecap="ROUND"/></g></g></svg>