<svg xmlns="http://www.w3.org/2000/svg" xmlns:xlink="http://www.w3.org/1999/xlink" fill="none" version="1.1" width="45.80623245239258" height="40.46364974975586" viewBox="0 0 45.80623245239258 40.46364974975586"><g><path d="M45.8062,13.0037Q45.8062,10.417,44.8161,8.02736Q43.8259,5.63772,41.9965,3.80911Q40.1685,1.9803036,37.7789,0.9901500000000001Q35.3892,0,32.8026,0Q30.2159,0,27.8263,0.9901500000000001Q25.4366,1.9803002,23.608,3.8097700000000003L22.9026,4.515219999999999L22.1968,3.80944Q18.3884,0.0010699999999999044,13.0026,0.0010699999999999044Q7.61674,0.0010699999999999044,3.80837,3.80944Q0,7.61781,0,13.0037Q0,18.3895,3.80837,22.1979L21.4884,39.8779Q21.5578,39.9473,21.6338,40.0097Q21.7097,40.072,21.7914,40.1266Q21.8731,40.1812,21.9598,40.2275Q22.0464,40.2738,22.1372,40.3114Q22.228,40.349,22.322,40.3775Q22.416,40.4061,22.5124,40.4252Q22.6088,40.4444,22.7065,40.454Q22.8043,40.4636,22.9026,40.4636Q23.0008,40.4636,23.0986,40.454Q23.1964,40.4444,23.2928,40.4252Q23.3891,40.4061,23.4832,40.3775Q23.5772,40.349,23.6679,40.3114Q23.7587,40.2738,23.8454,40.2275Q23.932,40.1812,24.0137,40.1266Q24.0954,40.072,24.1714,40.0097Q24.2473,39.9473,24.3168,39.8779L41.9968,22.1979Q43.8259,20.3696,44.8161,17.9799Q45.8062,15.5903,45.8062,13.0037ZM39.1687,6.6382Q40.4352,7.90415,41.1207,9.55852Q41.8062,11.2129,41.8062,13.0037Q41.8062,14.7944,41.1207,16.4488Q40.4353,18.1031,39.1684,19.3694L22.9026,35.6352L6.6368,19.3694Q4,16.732599999999998,4,13.0037Q4,9.27466,6.6368,6.63787Q9.27359,4.00107,13.0026,4.00107Q16.7316,4.00107,19.3684,6.63787L21.4884,8.75786Q21.5578,8.82734,21.6338,8.889669999999999Q21.7097,8.952,21.7914,9.00659Q21.8731,9.06118,21.9598,9.10749Q22.0464,9.15381,22.1372,9.191410000000001Q22.228,9.229009999999999,22.322,9.25753Q22.416,9.28605,22.5124,9.30522Q22.6088,9.324390000000001,22.7065,9.334019999999999Q22.8043,9.34365,22.9026,9.34365Q23.0008,9.34365,23.0986,9.334019999999999Q23.1964,9.324390000000001,23.2928,9.30522Q23.3891,9.28605,23.4832,9.25753Q23.5772,9.229009999999999,23.6679,9.191410000000001Q23.7587,9.15381,23.8454,9.10749Q23.932,9.06118,24.0137,9.00659Q24.0954,8.952,24.1714,8.889669999999999Q24.2473,8.82734,24.3168,8.75786L26.4371,6.63753Q27.7031,5.370979999999999,29.3575,4.68549Q31.0118,4,32.8026,4Q34.5933,4,36.2477,4.68549Q37.9021,5.370979999999999,39.1687,6.6382Z" fill-rule="evenodd" fill="#FFFFFF" fill-opacity="1"/></g></svg>