<svg xmlns="http://www.w3.org/2000/svg" xmlns:xlink="http://www.w3.org/1999/xlink" fill="none" version="1.1" width="30" height="30" viewBox="0 0 30 30"><defs><clipPath id="master_svg0_0_734"><rect x="0" y="0" width="30" height="30" rx="0"/></clipPath></defs><g clip-path="url(#master_svg0_0_734)"><g><path d="M15,27.5C14.70833,27.5,14.45833,27.4167,14.25,27.25C14.04167,27.0833,13.88542,26.8646,13.78125,26.5938C13.38542,25.4271,12.88542,24.3333,12.28125,23.3125C11.69792,22.2917,10.875,21.0938,9.8125,19.7188C8.75,18.3437,7.88542,17.0312,7.21875,15.7812C6.572917,14.5312,6.25,13.0208,6.25,11.25C6.25,8.8125,7.09375,6.75,8.78125,5.0625C10.48958,3.354166,12.5625,2.5,15,2.5C17.4375,2.5,19.5,3.354166,21.1875,5.0625C22.8958,6.75,23.75,8.8125,23.75,11.25C23.75,13.1458,23.3854,14.7292,22.6563,16C21.9479,17.25,21.125,18.4896,20.1875,19.7188C19.0625,21.2188,18.2083,22.4688,17.625,23.4688C17.0625,24.4479,16.5938,25.4896,16.21875,26.5938C16.11458,26.8854,15.94792,27.1146,15.71875,27.2812C15.51042,27.4271,15.27083,27.5,15,27.5ZM15,14.375C15.875,14.375,16.6146,14.0729,17.2188,13.4688C17.8229,12.8646,18.125,12.125,18.125,11.25C18.125,10.375,17.8229,9.63542,17.2188,9.03125C16.6146,8.42708,15.875,8.125,15,8.125C14.125,8.125,13.38542,8.42708,12.78125,9.03125C12.17708,9.63542,11.875,10.375,11.875,11.25C11.875,12.125,12.17708,12.8646,12.78125,13.4688C13.38542,14.0729,14.125,14.375,15,14.375Z" fill="#3C9EEA" fill-opacity="1"/></g></g></svg>