<svg xmlns="http://www.w3.org/2000/svg" xmlns:xlink="http://www.w3.org/1999/xlink" fill="none" version="1.1" width="25" height="23.75" viewBox="0 0 25 23.75"><g><path d="M8.5625,18.5312C8.5625,18.5312,12.5,16.1562,12.5,16.1562C12.5,16.1562,16.4375,18.5625,16.4375,18.5625C16.4375,18.5625,15.4062,14.0625,15.4062,14.0625C15.4062,14.0625,18.875,11.0625,18.875,11.0625C18.875,11.0625,14.3125,10.6563,14.3125,10.6563C14.3125,10.6563,12.5,6.40625,12.5,6.40625C12.5,6.40625,10.6875,10.625,10.6875,10.625C10.6875,10.625,6.125,11.0312,6.125,11.0312C6.125,11.0312,9.59375,14.0625,9.59375,14.0625C9.59375,14.0625,8.5625,18.5312,8.5625,18.5312ZM4.78125,23.75C4.78125,23.75,6.8125,14.9688,6.8125,14.9688C6.8125,14.9688,0,9.0625,0,9.0625C0,9.0625,9,8.28125,9,8.28125C9,8.28125,12.5,0,12.5,0C12.5,0,16,8.28125,16,8.28125C16,8.28125,25,9.0625,25,9.0625C25,9.0625,18.1875,14.9688,18.1875,14.9688C18.1875,14.9688,20.2188,23.75,20.2188,23.75C20.2188,23.75,12.5,19.0938,12.5,19.0938C12.5,19.0938,4.78125,23.75,4.78125,23.75Z" fill="#3C9EEA" fill-opacity="1"/></g></svg>