<svg xmlns="http://www.w3.org/2000/svg" xmlns:xlink="http://www.w3.org/1999/xlink" fill="none" version="1.1" width="24" height="24" viewBox="0 0 24 24"><defs><clipPath id="master_svg0_0_395"><rect x="0" y="0" width="24" height="24" rx="0"/></clipPath><mask id="master_svg1_0_395/0_87" style="mask-type:alpha" maskUnits="objectBoundingBox"><g><path d="M2,4.49993896484375C2,4.10211896484375,2.150509,3.72058396484375,2.418418,3.43927896484375C2.686328,3.15797496484375,3.04969,2.9999389648437487,3.4285699999999997,2.99993896484375C3.4285699999999997,2.99993896484375,20.5714,2.99993896484375,20.5714,2.99993896484375C20.9503,2.99993896484375,21.3137,3.15797496484375,21.5816,3.43927896484375C21.8495,3.72058396484375,22,4.10211896484375,22,4.49993896484375C22,4.89775896484375,21.8495,5.2792989648437505,21.5816,5.56059896484375C21.3137,5.84189896484375,20.9503,5.99993896484375,20.5714,5.99993896484375C20.5714,5.99993896484375,3.4285699999999997,5.99993896484375,3.4285699999999997,5.99993896484375C3.04969,5.99993896484375,2.686328,5.84189896484375,2.418418,5.56059896484375C2.150509,5.2792989648437505,2.0000000000000004,4.89775896484375,2,4.49993896484375ZM5.14792,11.99993896484375C5.14792,11.60210896484375,5.29843,11.22057896484375,5.56634,10.93927896484375C5.83425,10.65797896484375,6.19762,10.49993896484375,6.5765,10.49993896484375C6.5765,10.49993896484375,17.493000000000002,10.49993896484375,17.493000000000002,10.49993896484375C17.8719,10.49993896484375,18.2352,10.65797896484375,18.5031,10.93927896484375C18.771,11.22057896484375,18.9215,11.60210896484375,18.9215,11.99993896484375C18.9215,12.39776896484375,18.771,12.77929896484375,18.5031,13.06063896484375C18.2352,13.34193896484375,17.8719,13.49993896484375,17.493000000000002,13.49993896484375C17.493000000000002,13.49993896484375,6.5765,13.49993896484375,6.5765,13.49993896484375C6.19762,13.49993896484375,5.83425,13.34193896484375,5.56634,13.06063896484375C5.29843,12.77929896484375,5.14792,12.39776896484375,5.14792,11.99993896484375ZM8.81964,19.69823896484375C8.81964,19.30043896484375,8.97015,18.91893896484375,9.23806,18.637638964843752C9.50597,18.35633896484375,9.86933,18.19823896484375,10.24821,18.19823896484375C10.24821,18.19823896484375,13.8241,18.19823896484375,13.8241,18.19823896484375C14.2029,18.19823896484375,14.5663,18.35633896484375,14.8342,18.637638964843752C15.1021,18.91893896484375,15.2526,19.30043896484375,15.2526,19.69823896484375C15.2526,20.09613896484375,15.1021,20.47763896484375,14.8342,20.75893896484375C14.5663,21.04023896484375,14.2029,21.19823896484375,13.8241,21.19823896484375C13.8241,21.19823896484375,10.24821,21.19823896484375,10.24821,21.19823896484375C9.86933,21.19823896484375,9.50597,21.04023896484375,9.23806,20.75893896484375C8.97015,20.47763896484375,8.81964,20.09613896484375,8.81964,19.69823896484375Z" fill-rule="evenodd" fill="#FFFFFF" fill-opacity="1"/></g></mask></defs><g clip-path="url(#master_svg0_0_395)" mask="url(#master_svg1_0_395/0_87)"><g><rect x="0.00390625" y="-0.000823974609375" width="24" height="24" rx="0" fill="#3C9EEA" fill-opacity="1"/></g></g></svg>