<svg width="47" height="47" viewBox="0 0 47 47" fill="none" xmlns="http://www.w3.org/2000/svg">
<path d="M23.5 47C36.4787 47 47 36.4787 47 23.5C47 10.5213 36.4787 0 23.5 0C10.5213 0 0 10.5213 0 23.5C0 36.4787 10.5213 47 23.5 47Z" fill="url(#paint0_linear_12_6817)"/>
<path d="M36.0878 20.0853C36.0878 16.9645 33.5535 14.4302 30.4327 14.4302H16.0018C12.881 14.4302 10.3467 16.9645 10.3467 20.0853V26.8085C10.3467 29.9293 12.881 32.4636 16.0018 32.4636H30.4327C33.5535 32.4636 36.0878 29.9293 36.0878 26.8085V20.0853ZM27.6051 23.9391L21.1332 27.1436C20.8819 27.2902 20.0231 27.1018 20.0231 26.8085V20.2319C20.0231 19.9387 20.9028 19.7501 21.1542 19.8968L27.3538 23.2689C27.5842 23.4155 27.8565 23.7925 27.6051 23.9391Z" fill="white"/>
<defs>
<linearGradient id="paint0_linear_12_6817" x1="40.1276" y1="6.87595" x2="6.88118" y2="40.1224" gradientUnits="userSpaceOnUse">
<stop stop-color="#FF0000"/>
<stop offset="1" stop-color="#850000"/>
</linearGradient>
</defs>
</svg>
