<svg width="115" height="115" viewBox="0 0 115 115" fill="none" xmlns="http://www.w3.org/2000/svg">
<rect x="1" y="1" width="113" height="113" rx="56.5" fill="#FFF5FD"/>
<rect x="1" y="1" width="113" height="113" rx="56.5" stroke="#D52E9C" stroke-width="2" stroke-dasharray="6 6"/>
<path d="M95 57.4833C95 36.7706 78.1885 20 57.5 20C36.7781 20 20 36.804 20 57.4833C20 76.1915 33.7032 91.7261 51.6511 94.5323V68.3408H42.1257V57.5167H51.6511V49.2316C51.6511 39.8441 57.266 34.6325 65.8222 34.6325C69.9332 34.6325 74.2112 35.3675 74.2112 35.3675V44.588H69.4318C64.7861 44.588 63.3155 47.4944 63.3155 50.4343V57.4833H73.7099L72.0388 68.3074H63.2821V94.4989C81.2634 91.7261 95 76.2249 95 57.4833Z" fill="url(#paint0_linear_19_440)"/>
<path d="M72.0725 68.3399L73.7436 57.5158H63.3492V50.4668C63.3492 47.4935 64.7864 44.6205 69.4656 44.6205H74.2115V35.4C74.2115 35.4 69.9335 34.665 65.8225 34.665C57.2664 34.665 51.6514 39.8432 51.6514 49.2642V57.5158H42.126V68.3399H51.6514V94.5314C53.5565 94.8321 55.5284 94.9991 57.5003 94.9991C59.5057 94.9991 61.4442 94.8321 63.3492 94.5314V68.3399H72.0725Z" fill="white"/>
<defs>
<linearGradient id="paint0_linear_19_440" x1="30.9472" y1="30.9844" x2="83.9764" y2="84.0369" gradientUnits="userSpaceOnUse">
<stop stop-color="#4676ED"/>
<stop offset="0.1854" stop-color="#436DE4"/>
<stop offset="0.487" stop-color="#3C55CD"/>
<stop offset="0.8651" stop-color="#302EA8"/>
<stop offset="1" stop-color="#2B1E99"/>
</linearGradient>
</defs>
</svg>
