<svg width="115" height="115" viewBox="0 0 115 115" fill="none" xmlns="http://www.w3.org/2000/svg">
<rect x="1" y="1" width="113" height="113" rx="56.5" fill="#FFF5FD"/>
<rect x="1" y="1" width="113" height="113" rx="56.5" stroke="#D52E9C" stroke-width="2" stroke-dasharray="6 6"/>
<path d="M57.5 95C78.2106 95 95 78.2107 95 57.5C95 36.7893 78.2106 20 57.5 20C36.7893 20 20 36.7893 20 57.5C20 78.2107 36.7893 95 57.5 95Z" fill="url(#paint0_linear_19_442)"/>
<path d="M69.1644 48.4742C70.5857 48.4742 71.7379 47.322 71.7379 45.9007C71.7379 44.4794 70.5857 43.3271 69.1644 43.3271C67.743 43.3271 66.5908 44.4794 66.5908 45.9007C66.5908 47.322 67.743 48.4742 69.1644 48.4742Z" fill="white"/>
<path d="M57.7 46.6367C51.7174 46.6367 46.8711 51.483 46.8711 57.4656C46.8711 63.4482 51.7174 68.2945 57.7 68.2945C63.6826 68.2945 68.5288 63.4482 68.5288 57.4656C68.5288 51.483 63.6826 46.6367 57.7 46.6367ZM57.7 64.384C53.8898 64.384 50.7481 61.2758 50.7481 57.4322C50.7481 53.622 53.8564 50.4803 57.7 50.4803C61.5436 50.4803 64.6518 53.5886 64.6518 57.4322C64.6518 61.2758 61.5101 64.384 57.7 64.384Z" fill="white"/>
<path d="M66.2897 79.4574H48.7429C41.4568 79.4574 35.541 73.5416 35.541 66.2555V48.7087C35.541 41.4226 41.4568 35.5068 48.7429 35.5068H66.2897C73.5758 35.5068 79.4915 41.4226 79.4915 48.7087V66.2555C79.525 73.5416 73.5758 79.4574 66.2897 79.4574ZM48.7429 39.6178C43.7295 39.6178 39.6854 43.6953 39.6854 48.6753V66.2221C39.6854 71.2354 43.7629 75.2796 48.7429 75.2796H66.2897C71.303 75.2796 75.3472 71.202 75.3472 66.2221V48.6753C75.3472 43.6619 71.2696 39.6178 66.2897 39.6178H48.7429Z" fill="white"/>
<defs>
<linearGradient id="paint0_linear_19_442" x1="84.0427" y1="30.9893" x2="30.9903" y2="84.0421" gradientUnits="userSpaceOnUse">
<stop offset="0.0011048" stop-color="#FBE18A"/>
<stop offset="0.2094" stop-color="#FCBB45"/>
<stop offset="0.3765" stop-color="#F75274"/>
<stop offset="0.5238" stop-color="#D53692"/>
<stop offset="0.7394" stop-color="#8F39CE"/>
<stop offset="1" stop-color="#5B4FE9"/>
</linearGradient>
</defs>
</svg>
