<svg width="47" height="47" viewBox="0 0 47 47" fill="none" xmlns="http://www.w3.org/2000/svg">
<path d="M23.5 47C36.4787 47 47 36.4787 47 23.5C47 10.5213 36.4787 0 23.5 0C10.5213 0 0 10.5213 0 23.5C0 36.4787 10.5213 47 23.5 47Z" fill="url(#paint0_linear_58_3312)"/>
<path fill-rule="evenodd" clip-rule="evenodd" d="M29.8672 19.185C31.7941 20.5674 34.1399 21.3633 36.6952 21.3633V16.4622C36.2135 16.4622 35.7318 16.4203 35.271 16.3156V20.1694C32.7157 20.1694 30.3699 19.3526 28.443 17.9912V27.9818C28.443 32.9876 24.3797 37.0299 19.3949 37.0299C17.5308 37.0299 15.7924 36.4644 14.3472 35.501C15.9809 37.1766 18.2848 38.2238 20.8191 38.2238C25.8249 38.2238 29.8672 34.1815 29.8672 29.1757V19.185ZM31.6266 14.2421C30.6422 13.1739 29.9929 11.7706 29.8672 10.2416V9.61328H28.5058C28.8619 11.5611 30.0138 13.2367 31.6266 14.2421ZM17.5098 31.6681C16.9652 30.956 16.672 30.0763 16.672 29.1547C16.672 26.8717 18.5361 25.0077 20.8191 25.0077C21.238 25.0077 21.6778 25.0705 22.0758 25.1962V20.1904C21.5941 20.1275 21.1123 20.1066 20.6515 20.1066V24.0023C20.2536 23.8766 19.8138 23.8138 19.3949 23.8138C17.1119 23.8138 15.2478 25.6569 15.2478 27.9609C15.2269 29.5736 16.1484 30.9769 17.5098 31.6681Z" fill="#EE1D52"/>
<path fill-rule="evenodd" clip-rule="evenodd" d="M28.4426 17.9912C30.3695 19.3735 32.7153 20.1694 35.2706 20.1694V16.3156C33.8463 16.0224 32.5896 15.2684 31.6471 14.2421C30.0344 13.2367 28.8615 11.5611 28.5264 9.61328H24.9658V29.1757C24.9658 31.4586 23.1017 33.3018 20.8187 33.3018C19.4782 33.3018 18.2844 32.6525 17.5304 31.6681C16.169 30.9769 15.2474 29.5945 15.2474 27.9609C15.2474 25.6779 17.1115 23.8138 19.3945 23.8138C19.8343 23.8138 20.2532 23.8766 20.6511 24.0023V20.1066C15.7291 20.2113 11.7915 24.2118 11.7915 29.1547C11.7915 31.6262 12.7759 33.8463 14.3677 35.48C15.8129 36.4435 17.5513 37.009 19.4154 37.009C24.4212 37.009 28.4635 32.9667 28.4635 27.9609V17.9912H28.4426Z" fill="white"/>
<path fill-rule="evenodd" clip-rule="evenodd" d="M35.25 16.3161V15.2688C33.9723 15.2688 32.7157 14.9128 31.6265 14.2426C32.59 15.2898 33.8676 16.0229 35.25 16.3161ZM28.5058 9.61377C28.4639 9.42527 28.4429 9.23676 28.422 9.04825V8.41992H23.5V27.9823C23.5 30.2653 21.6359 32.1084 19.3529 32.1084C18.6827 32.1084 18.0544 31.9409 17.4888 31.6686C18.2429 32.653 19.4367 33.3023 20.7772 33.3023C23.0602 33.3023 24.9033 31.4591 24.9242 29.1761V9.61377H28.5058ZM20.6306 20.128V19.018C20.2117 18.9551 19.8137 18.9342 19.3948 18.9342C14.389 18.9342 10.3467 22.9765 10.3467 27.9823C10.3467 31.124 11.9385 33.8678 14.3681 35.5015C12.7763 33.8678 11.7919 31.6476 11.7919 29.1761C11.7709 24.2332 15.7085 20.2327 20.6306 20.128Z" fill="#69C9D0"/>
<defs>
<linearGradient id="paint0_linear_58_3312" x1="6.88725" y1="6.87092" x2="40.1337" y2="40.1171" gradientUnits="userSpaceOnUse">
<stop stop-color="#22004A"/>
<stop offset="0.9565" stop-color="#020003"/>
<stop offset="1"/>
</linearGradient>
</defs>
</svg>
