<svg width="115" height="115" viewBox="0 0 115 115" fill="none" xmlns="http://www.w3.org/2000/svg">
<rect x="1" y="1" width="113" height="113" rx="56.5" fill="#FFF5FD"/>
<rect x="1" y="1" width="113" height="113" rx="56.5" stroke="#D52E9C" stroke-width="2" stroke-dasharray="6 6"/>
<path d="M57.5 95C78.2106 95 95 78.2107 95 57.5C95 36.7893 78.2106 20 57.5 20C36.7893 20 20 36.7893 20 57.5C20 78.2107 36.7893 95 57.5 95Z" fill="url(#paint0_linear_63_3440)"/>
<path fill-rule="evenodd" clip-rule="evenodd" d="M67.6606 50.6144C70.7355 52.8203 74.4788 54.0903 78.5563 54.0903V46.2695C77.7876 46.2695 77.0189 46.2026 76.2836 46.0355V52.1852C72.206 52.1852 68.4627 50.8818 65.3878 48.7093V64.6518C65.3878 72.6398 58.9039 79.0903 50.9494 79.0903C47.9748 79.0903 45.2007 78.1879 42.8945 76.6505C45.5015 79.3243 49.1779 80.9954 53.2221 80.9954C61.21 80.9954 67.6606 74.5449 67.6606 66.5569V50.6144ZM70.4681 42.7267C68.8972 41.0221 67.8611 38.7828 67.6606 36.343V35.3403H65.4881C66.0563 38.4486 67.8945 41.1224 70.4681 42.7267ZM47.9413 70.5342C47.0723 69.3978 46.6044 67.9941 46.6044 66.5235C46.6044 62.8804 49.579 59.9058 53.2221 59.9058C53.8905 59.9058 54.5924 60.0061 55.2274 60.2066V52.2187C54.4587 52.1184 53.69 52.085 52.9547 52.085V58.3015C52.3196 58.101 51.6178 58.0008 50.9494 58.0008C47.3063 58.0008 44.3317 60.9419 44.3317 64.6184C44.2983 67.1919 45.7688 69.4312 47.9413 70.5342Z" fill="#EE1D52"/>
<path fill-rule="evenodd" clip-rule="evenodd" d="M65.3873 48.7093C68.4621 50.9152 72.2055 52.1852 76.283 52.1852V46.0355C74.0103 45.5676 72.0049 44.3644 70.5009 42.7267C67.9274 41.1224 66.0557 38.4486 65.521 35.3403H59.8392V66.5569C59.8392 70.1999 56.8645 73.1411 53.2215 73.1411C51.0824 73.1411 49.1774 72.105 47.9742 70.5342C45.8017 69.4312 44.3311 67.2253 44.3311 64.6184C44.3311 60.9753 47.3057 58.0008 50.9488 58.0008C51.6506 58.0008 52.3191 58.101 52.9541 58.3015V52.085C45.0998 52.2521 38.8164 58.6358 38.8164 66.5235C38.8164 70.4673 40.3872 74.0101 42.9274 76.6171C45.2335 78.1545 48.0076 79.0569 50.9822 79.0569C58.9701 79.0569 65.4207 72.6064 65.4207 64.6184V48.7093H65.3873Z" fill="white"/>
<path fill-rule="evenodd" clip-rule="evenodd" d="M76.25 46.0363V44.3652C74.2113 44.3652 72.2059 43.797 70.468 42.7275C72.0054 44.3986 74.0442 45.5684 76.25 46.0363ZM65.488 35.3411C65.4212 35.0403 65.3878 34.7395 65.3543 34.4387V33.436H57.5V64.6526C57.5 68.2956 54.5255 71.2368 50.8824 71.2368C49.8129 71.2368 48.8102 70.9694 47.9078 70.535C49.111 72.1058 51.0161 73.1419 53.1552 73.1419C56.7982 73.1419 59.7394 70.2007 59.7728 66.5577V35.3411H65.488ZM52.9212 52.1192V50.3478C52.2527 50.2475 51.6177 50.2141 50.9493 50.2141C42.9613 50.2141 36.5107 56.6646 36.5107 64.6526C36.5107 69.666 39.0508 74.0443 42.9278 76.6513C40.3877 74.0443 38.8169 70.5015 38.8169 66.5577C38.7835 58.67 45.0669 52.2863 52.9212 52.1192Z" fill="#69C9D0"/>
<defs>
<linearGradient id="paint0_linear_63_3440" x1="30.9903" y1="30.9642" x2="84.0431" y2="84.0167" gradientUnits="userSpaceOnUse">
<stop stop-color="#22004A"/>
<stop offset="0.9565" stop-color="#020003"/>
<stop offset="1"/>
</linearGradient>
</defs>
</svg>
