<svg width="115" height="115" viewBox="0 0 115 115" fill="none" xmlns="http://www.w3.org/2000/svg">
<rect x="1" y="1" width="113" height="113" rx="56.5" fill="#FFF5FD"/>
<rect x="1" y="1" width="113" height="113" rx="56.5" stroke="#D52E9C" stroke-width="2" stroke-dasharray="6 6"/>
<path d="M56.5 95C77.2107 95 94 78.2107 94 57.5C94 36.7893 77.2107 20 56.5 20C35.7893 20 19 36.7893 19 57.5C19 78.2107 35.7893 95 56.5 95Z" fill="url(#paint0_linear_19_446)"/>
<path d="M77.222 44.665C75.9186 45.2667 74.4814 45.6009 73.0777 45.8348C73.7461 45.7346 74.7153 44.5314 75.1164 44.03C75.718 43.2947 76.2193 42.4257 76.4867 41.5233C76.5202 41.4565 76.5536 41.3562 76.4867 41.3228C76.3865 41.2894 76.353 41.2894 76.2528 41.3562C74.6819 42.1918 73.0776 42.7934 71.3396 43.2279C71.206 43.2613 71.1057 43.2279 71.0054 43.1276C70.8717 42.9605 70.7381 42.8268 70.571 42.6931C69.8357 42.0915 69.0669 41.5902 68.1979 41.2225C67.0616 40.7546 65.7915 40.5541 64.5549 40.6209C63.3517 40.6878 62.1819 41.0554 61.1124 41.5902C60.0429 42.1584 59.0737 42.9271 58.3384 43.8629C57.5362 44.8322 56.968 45.9685 56.6672 47.2052C56.3664 48.3749 56.3998 49.5447 56.5669 50.7145C56.6003 50.9151 56.567 50.9485 56.3999 50.915C49.6485 49.9124 44.0669 47.506 39.5549 42.3255C39.3544 42.0915 39.2541 42.0915 39.087 42.3589C37.1151 45.3335 38.0509 50.1129 40.5576 52.4525C40.8918 52.7533 41.226 53.0875 41.5937 53.3549C41.46 53.3883 39.8223 53.1878 38.3517 52.4525C38.1512 52.3188 38.0509 52.3856 38.0509 52.6196C38.0175 52.9538 38.0509 53.2212 38.1178 53.5888C38.4854 56.5969 40.591 59.4044 43.4319 60.4739C43.7661 60.6076 44.1338 60.7413 44.5014 60.8081C43.8664 60.9418 43.1645 61.0421 41.3263 60.9084C41.0923 60.8749 40.9921 60.9752 41.0924 61.2092C42.4961 65.0193 45.5375 66.1891 47.8103 66.8241C48.1111 66.891 48.4119 66.891 48.7127 66.9578C48.6793 66.9913 48.6792 66.9912 48.6458 67.0247C47.8771 68.161 45.2702 69.03 44.067 69.4645C41.8611 70.2332 39.4547 70.6009 37.1151 70.3669C36.7474 70.3001 36.6472 70.3001 36.5469 70.3669C36.4466 70.4338 36.5469 70.534 36.6472 70.6009C37.1151 70.9017 37.6164 71.2025 38.0843 71.4699C39.5549 72.272 41.1258 72.8736 42.73 73.3415C51.0856 75.6477 60.4774 73.9431 66.7608 67.7265C71.6739 62.8469 73.4118 56.0955 73.4118 49.3442C73.4118 49.0768 73.7127 48.9431 73.9132 48.8094C75.1833 47.8402 76.2193 46.7038 77.1886 45.4003C77.3891 45.0995 77.3891 44.8656 77.3891 44.7653C77.3891 44.7319 77.3891 44.7319 77.3891 44.7319C77.3891 44.5648 77.3891 44.5982 77.222 44.665Z" fill="white"/>
<defs>
<linearGradient id="paint0_linear_19_446" x1="83.0193" y1="30.9893" x2="29.9665" y2="84.0421" gradientUnits="userSpaceOnUse">
<stop stop-color="#33CCFF"/>
<stop offset="1" stop-color="#337FFF"/>
</linearGradient>
</defs>
</svg>
